<?xml version="1.0" standalone="no"?>
<!DOCTYPE svg PUBLIC "-//W3C//DTD SVG 20010904//EN"
 "http://www.w3.org/TR/2001/REC-SVG-20010904/DTD/svg10.dtd">
<svg version="1.0" xmlns="http://www.w3.org/2000/svg"
 width="349.000000pt" height="221.000000pt" viewBox="0 0 349.000000 221.000000"
 preserveAspectRatio="xMidYMid meet">

<g transform="translate(0.000000,221.000000) scale(0.100000,-0.100000)"
fill="#000000" stroke="none">
<path d="M1212 1950 c-106 -28 -167 -65 -253 -150 -116 -115 -169 -242 -169
-405 0 -298 225 -538 535 -570 115 -12 272 35 377 112 l51 37 145 -148 c138
-140 145 -146 163 -130 18 16 13 23 -127 167 -139 144 -144 150 -129 171 34
47 76 124 96 176 27 69 37 229 19 313 -28 136 -140 295 -255 363 -135 78 -309
103 -453 64z m251 -45 c26 -4 83 -24 126 -46 197 -98 314 -318 283 -531 -51
-349 -425 -548 -738 -393 -322 159 -388 591 -129 834 91 85 179 127 295 141
55 6 74 6 163 -5z"/>
<path d="M1360 1812 c0 -28 2 -29 54 -35 158 -16 307 -165 323 -323 6 -51 7
-54 34 -54 35 0 37 16 14 105 -47 180 -187 302 -377 329 -48 7 -48 7 -48 -22z"/>
<path d="M2180 1400 l0 -530 45 0 45 0 0 70 c0 39 1 70 3 70 2 0 26 -22 54
-49 73 -71 141 -94 259 -89 78 3 101 8 156 36 77 38 130 92 167 171 23 50 26
68 26 166 0 98 -3 116 -26 166 -37 79 -90 133 -167 171 -57 29 -79 33 -157 36
-118 5 -185 -19 -255 -89 l-50 -50 0 226 0 225 -50 0 -50 0 0 -530z m495 116
c63 -27 104 -66 136 -132 27 -54 31 -74 31 -140 0 -67 -4 -84 -33 -142 -41
-79 -101 -125 -185 -142 -98 -21 -182 2 -254 66 -69 63 -85 103 -85 219 0 84
4 107 22 140 19 36 59 79 106 115 52 39 186 47 262 16z"/>
<path d="M90 1825 l0 -45 185 0 186 0 -3 -352 c-3 -336 -4 -355 -24 -393 -59
-114 -258 -113 -352 1 l-29 35 -27 -35 c-31 -42 -27 -58 29 -100 70 -54 122
-70 220 -70 70 0 100 4 135 20 61 28 106 77 130 141 19 50 20 78 20 448 l0
395 -235 0 -235 0 0 -45z"/>
<path d="M2595 651 c-72 -18 -142 -77 -169 -143 -9 -21 -16 -62 -16 -93 0 -95
47 -172 135 -218 61 -32 184 -31 245 3 l45 25 3 93 3 92 -26 0 c-25 0 -25 -1
-25 -83 0 -81 -1 -84 -26 -96 -71 -32 -170 -21 -232 26 -99 75 -99 241 1 317
48 37 127 53 184 38 25 -7 58 -21 73 -32 25 -18 29 -18 41 -4 11 14 9 19 -11
35 -52 40 -152 57 -225 40z"/>
<path d="M3130 651 c-117 -38 -180 -121 -180 -236 0 -98 44 -170 131 -216 35
-19 60 -24 119 -24 66 0 82 4 130 31 38 22 64 46 85 79 27 44 30 57 30 130 0
73 -3 86 -30 130 -41 65 -113 106 -198 111 -34 2 -73 0 -87 -5z m133 -42 c44
-12 101 -59 124 -103 10 -19 16 -55 16 -91 0 -70 -17 -109 -67 -153 -150 -131
-382 8 -335 201 27 115 143 179 262 146z"/>
</g>
</svg>
